<svg xmlns="http://www.w3.org/2000/svg"><symbol id="down" viewBox="0 0 32 26"><path d="M16 26c-.3 0-.5-.1-.7-.3l-15-15c-.4-.4-.4-1 0-1.4s1-.4 1.4 0L16 23.6 30.3 9.3c.4-.4 1-.4 1.4 0s.4 1 0 1.4l-15 15c-.2.2-.4.3-.7.3zM16 17c-.3 0-.5-.1-.7-.3l-15-15C-.1 1.3-.1.7.3.3s1-.4 1.4 0L16 14.6 30.3.3c.4-.4 1-.4 1.4 0s.4 1 0 1.4l-15 15c-.2.2-.4.3-.7.3z"/></symbol><symbol id="email" viewBox="0 0 100 75"><path d="M7.5 0h84.9c1.9 0 2.3 1.1.7 2.5l-40.4 37c-1.5 1.4-4 1.4-5.6 0L6.8 2.5C5.2 1.1 5.6 0 7.5 0zM2.4 69C1.1 70.7 0 70.2 0 67.9V7.1c0-2.3 1.2-3 2.8-1.6L29.6 30c1.5 1.4 1.7 3.9.3 5.5L2.4 69zM92.5 75h-85c-1.9 0-2.4-1.3-1.1-3l27.5-33.5c1.4-1.6 3.7-1.8 5.2-.4l8.1 7.4c1.5 1.4 4 1.4 5.6 0l8.1-7.4c1.5-1.4 3.9-1.2 5.2.4L93.6 72c1.3 1.7.8 3-1.1 3zM100 67.9c0 2.3-1.1 2.8-2.4 1.2L70.1 35.6c-1.3-1.6-1.2-4.1.3-5.5L97.2 5.5c1.5-1.4 2.8-.7 2.8 1.6v60.8z"/></symbol><symbol id="linkedin" viewBox="0 0 450 450"><path d="M101.2 449H8.3V149.9h92.9V449zM54.7 109.1C25 109.1.9 84.5.9 54.8S25 1 54.7 1s53.8 24.1 53.8 53.8-24.1 54.3-53.8 54.3zM448.9 449h-92.7V303.4c0-34.7-.7-79.2-48.3-79.2-48.3 0-55.7 37.7-55.7 76.7V449h-92.8V149.9h89.1v40.8h1.3c12.4-23.5 42.7-48.3 87.9-48.3 94 0 111.3 61.9 111.3 142.3V449h-.1z"/></symbol><symbol id="twitter" viewBox="0 0 252 206"><path d="M79.6 204.6c94.3 0 145.9-78.2 145.9-145.9 0-2.2 0-4.4-.1-6.6 10-7.3 18.7-16.3 25.6-26.5-9.4 4.1-19.3 6.9-29.5 8.1 10.7-6.4 18.7-16.5 22.5-28.4-10.1 6-21.1 10.2-32.6 12.4C192-3 159.5-4 138.8 15.5c-13.3 12.5-19 31.2-14.8 49-41.1-2.2-79.6-21.7-105.6-53.7-13.6 23.4-6.7 53.4 15.9 68.5-8.2-.3-16.2-2.5-23.3-6.5v.6c0 24.4 17.2 45.4 41.2 50.3-7.6 2.1-15.5 2.4-23.2.9 6.7 20.9 26 35.2 47.9 35.6-18.2 14.3-40.6 22-63.7 22-4.1 0-8.2-.3-12.2-.7 23.5 15.1 50.7 23.1 78.6 23.1"/></symbol><symbol id="logo-servier" viewBox="0 0 335 112"><path d="M183.58 90.51c-.02-.22.18-1.44-.62-2.3-.44-.47-1.8-.83-2.8-.83-2.52 0-4.1.54-4.4 1.96-.45 2.08 2.22 2.73 4.29 2.95 4.04.42 11.25 1.98 9.7 9.05-1.65 7.53-9.19 9.66-14.44 9.66-6.73 0-12.72-2.45-11.17-10.17l8.03-.34c-.62 2.68.62 4.26 4.29 4.23 1.84-.02 4.28-.32 4.57-2.23.61-3.86-4.75-2.36-10.45-5.07-2.65-1.26-3.93-4.26-3.27-7.33 1.77-6.73 8.99-9.06 13.43-9.06 5.96 0 12.18 2.23 10.8 9.14l-7.96.34zm28.65 19.3l1.35-6.25h-14.01l1.14-5.28h12.49l1.35-6.23h-12.49l.95-4.41h14.01l1.35-6.25h-22.02l-6.15 28.43h22.03zm43.2-9.67h-.08l-1.67-18.75h-8.85l4.06 28.43h7.49l16.27-28.43h-8.21l-9.01 18.75zm20.97 9.67l6.15-28.43h-8.01l-6.15 28.43h8.01zm25.99 0l1.35-6.25h-14.01l1.14-5.28h12.49l1.35-6.23h-12.49l.95-4.41h14.01l1.36-6.25h-22.02l-6.14 28.43h22.01zm-65.17-13.72c2.67-1.17 6.49-3.57 6.71-7.9.33-6.28-4.3-6.8-9.18-6.8h-13.37l-6.14 28.43h8.01l2.19-10.15h3c4.08 0 3.67 3.4 3.67 3.4s-.26 4.34.22 6.75h8.21c-.19-2.28-.53-1.82-.23-5.29.59-7.09-.09-7.77-3.09-8.44m-10.44-2.65l1.17-5.8h3.12c2.56 0 5.02.37 4.34 3.27-.64 2.73-2.95 2.53-5.51 2.53h-3.12zM82.24 50.96h186.4L91.19 41.03l-8.95 9.93zm12.17-13.45h136.94l-127.99-9.93-8.95 9.93zm12.17-13.46h86.47l-77.53-9.93-8.94 9.93zm12.17-13.45h35.87L127.7.99l-8.95 9.61zm55.09 49.33H.57l164.32 9.93 8.95-9.93zm-12.17 13.45H34.02l118.7 9.93 8.95-9.93zM149.5 86.83H68.79l71.76 9.93 8.95-9.93zm-12.17 13.45h-35.87l26.92 9.61 8.95-9.61zm190.37-4.19c2.68-1.17 6.49-3.57 6.71-7.9.33-6.28-4.3-6.8-9.18-6.8h-13.37l-6.15 28.43h8.01l2.19-10.15h3c4.09 0 3.68 3.4 3.68 3.4s-.26 4.34.22 6.75h8.21c-.18-2.28-.52-1.82-.23-5.29.59-7.09-.09-7.77-3.09-8.44m-10.44-2.65l1.17-5.8h3.13c2.56 0 5.02.37 4.34 3.27-.64 2.73-2.95 2.53-5.51 2.53h-3.13zM48.13 2.7l-3.19 15.7L32.4 8.42l7.64 14.09-16.02.4 14.91 5.88-12 10.63 15.2-5.08-2.35 15.84 8.36-13.65 8.37 13.65-2.36-15.84 15.19 5.09-12-10.62 14.91-5.88-16.02-.4 7.65-14.09-12.56 9.96-3.19-15.7z"/></symbol></svg>
