<svg xmlns="http://www.w3.org/2000/svg" viewBox="0 0 335 112"><title>Servier</title><path fill="#0071ba" d="M183.58 90.51c-.02-.22.18-1.44-.62-2.3-.44-.47-1.8-.83-2.8-.83-2.52 0-4.1.54-4.4 1.96-.45 2.08 2.22 2.73 4.29 2.95 4.04.42 11.25 1.98 9.7 9.05-1.65 7.53-9.19 9.66-14.44 9.66-6.73 0-12.72-2.45-11.17-10.17l8.03-.34c-.62 2.68.62 4.26 4.29 4.23 1.84-.02 4.28-.32 4.57-2.23.61-3.86-4.75-2.36-10.45-5.07-2.65-1.26-3.93-4.26-3.27-7.33 1.77-6.73 8.99-9.06 13.43-9.06 5.96 0 12.18 2.23 10.8 9.14l-7.96.34zm28.65 19.3l1.35-6.25h-14.01l1.14-5.28h12.49l1.35-6.23h-12.49l.95-4.41h14.01l1.35-6.25h-22.02l-6.15 28.43h22.03zm43.2-9.67h-.08l-1.67-18.75h-8.85l4.06 28.43h7.49l16.27-28.43h-8.21l-9.01 18.75zm20.97 9.67l6.15-28.43h-8.01l-6.15 28.43h8.01zm25.99 0l1.35-6.25h-14.01l1.14-5.28h12.49l1.35-6.23h-12.49l.95-4.41h14.01l1.36-6.25h-22.02l-6.14 28.43h22.01zm-65.17-13.72c2.67-1.17 6.49-3.57 6.71-7.9.33-6.28-4.3-6.8-9.18-6.8h-13.37l-6.14 28.43h8.01l2.19-10.15h3c4.08 0 3.67 3.4 3.67 3.4s-.26 4.34.22 6.75h8.21c-.19-2.28-.53-1.82-.23-5.29.59-7.09-.09-7.77-3.09-8.44m-10.44-2.65l1.17-5.8h3.12c2.56 0 5.02.37 4.34 3.27-.64 2.73-2.95 2.53-5.51 2.53h-3.12zM82.24 50.96h186.4L91.19 41.03l-8.95 9.93zm12.17-13.45h136.94l-127.99-9.93-8.95 9.93zm12.17-13.46h86.47l-77.53-9.93-8.94 9.93zm12.17-13.45h35.87L127.7.99l-8.95 9.61zm55.09 49.33H.57l164.32 9.93 8.95-9.93zm-12.17 13.45H34.02l118.7 9.93 8.95-9.93zM149.5 86.83H68.79l71.76 9.93 8.95-9.93zm-12.17 13.45h-35.87l26.92 9.61 8.95-9.61zm190.37-4.19c2.68-1.17 6.49-3.57 6.71-7.9.33-6.28-4.3-6.8-9.18-6.8h-13.37l-6.15 28.43h8.01l2.19-10.15h3c4.09 0 3.68 3.4 3.68 3.4s-.26 4.34.22 6.75h8.21c-.18-2.28-.52-1.82-.23-5.29.59-7.09-.09-7.77-3.09-8.44m-10.44-2.65l1.17-5.8h3.13c2.56 0 5.02.37 4.34 3.27-.64 2.73-2.95 2.53-5.51 2.53h-3.13zM48.13 2.7l-3.19 15.7L32.4 8.42l7.64 14.09-16.02.4 14.91 5.88-12 10.63 15.2-5.08-2.35 15.84 8.36-13.65 8.37 13.65-2.36-15.84 15.19 5.09-12-10.62 14.91-5.88-16.02-.4 7.65-14.09-12.56 9.96-3.19-15.7z"/></svg>
