<svg xmlns="http://www.w3.org/2000/svg" viewBox="0 0 335 133"><title>Servier Pharmaceuticals</title><path fill="#0071ba" d="M183.58 90.44c-.02-.22.18-1.44-.62-2.3-.44-.47-1.8-.83-2.8-.83-2.52 0-4.1.54-4.4 1.96-.45 2.08 2.22 2.73 4.29 2.95 4.04.42 11.25 1.98 9.7 9.05-1.65 7.53-9.19 9.66-14.44 9.66-6.73 0-12.72-2.45-11.17-10.17l8.03-.34c-.62 2.68.62 4.26 4.29 4.23 1.84-.02 4.28-.32 4.57-2.23.61-3.86-4.75-2.36-10.45-5.07-2.65-1.26-3.93-4.26-3.27-7.33 1.77-6.73 8.99-9.06 13.43-9.06 5.96 0 12.18 2.23 10.8 9.14l-7.96.34zm28.65 19.3l1.35-6.25h-14.01l1.14-5.28h12.49l1.35-6.23h-12.49l.95-4.41h14.01l1.35-6.25h-22.02l-6.15 28.43h22.03zm43.2-9.68h-.08l-1.67-18.75h-8.85l4.06 28.43h7.49l16.27-28.43h-8.21l-9.01 18.75zm20.97 9.68l6.15-28.43h-8.01l-6.15 28.43h8.01zm25.99 0l1.35-6.25h-14.01l1.14-5.28h12.49l1.35-6.23h-12.49l.95-4.41h14.01l1.36-6.25h-22.02l-6.14 28.43h22.01zm-65.17-13.72c2.67-1.17 6.49-3.57 6.71-7.9.33-6.28-4.3-6.8-9.18-6.8h-13.37l-6.14 28.43h8.01l2.19-10.15h3c4.08 0 3.67 3.4 3.67 3.4s-.26 4.34.22 6.75h8.21c-.19-2.28-.53-1.82-.23-5.29.59-7.1-.09-7.78-3.09-8.44m-10.44-2.66l1.17-5.8h3.12c2.56 0 5.02.37 4.34 3.27-.64 2.73-2.95 2.53-5.51 2.53h-3.12zM82.24 50.88h186.4L91.19 40.95l-8.95 9.93zm12.17-13.45h136.94L103.36 27.5l-8.95 9.93zm12.17-13.45h86.47l-77.53-9.93-8.94 9.93zm12.17-13.45h35.87L127.7.92l-8.95 9.61zm55.09 49.32H.57l164.32 9.93 8.95-9.93zM161.67 73.3H34.02l118.7 9.93 8.95-9.93zM149.5 86.75H68.79l71.76 9.93 8.95-9.93zm-12.17 13.46h-35.87l26.92 9.61 8.95-9.61zm190.37-4.19c2.68-1.17 6.49-3.57 6.71-7.9.33-6.28-4.3-6.8-9.18-6.8h-13.37l-6.15 28.43h8.01l2.19-10.15h3c4.09 0 3.68 3.4 3.68 3.4s-.26 4.34.22 6.75h8.21c-.18-2.28-.52-1.82-.23-5.29.59-7.1-.09-7.78-3.09-8.44m-10.44-2.66l1.17-5.8h3.13c2.56 0 5.02.37 4.34 3.27-.64 2.73-2.95 2.53-5.51 2.53h-3.13zM48.13 2.62l-3.19 15.7L32.4 8.35l7.64 14.09-16.02.4 14.91 5.88-12 10.62 15.2-5.08-2.36 15.84 8.36-13.65L56.5 50.1l-2.36-15.84 15.19 5.09-12-10.62 14.91-5.88-16.02-.4 7.65-14.09-12.55 9.97-3.19-15.71z"/><path fill="#6dc7dd" d="M185.71 131.81l2.99-14.06h5.13c.91 0 1.64.1 2.19.31s.95.49 1.22.86c.27.36.42.78.46 1.26.04.47 0 .97-.12 1.49-.17.78-.47 1.42-.89 1.93-.42.51-.92.91-1.49 1.2-.57.29-1.19.5-1.86.62-.66.12-1.32.18-1.97.18h-3.01l-1.33 6.21h-1.32zm5.94-7.35c.62 0 1.19-.04 1.7-.12.51-.08.96-.22 1.35-.44.39-.22.72-.51.99-.88s.46-.86.6-1.46c.2-.89.05-1.55-.43-2.01-.48-.46-1.35-.68-2.62-.68h-3.44l-1.19 5.58h3.04zm5.88 7.35l2.99-14.06h1.17l-1.13 5.35c.57-.49 1.14-.9 1.71-1.21s1.2-.47 1.9-.47c.62 0 1.18.11 1.67.32.49.22.86.59 1.1 1.12.17.36.24.74.2 1.12-.03.38-.09.78-.18 1.2l-1.41 6.62h-1.17l1.41-6.6c.2-.91.14-1.59-.17-2.05-.31-.46-.93-.68-1.86-.68-.36 0-.71.05-1.03.17-.33.11-.63.26-.91.44s-.53.39-.75.62c-.22.24-.4.48-.55.74-.18.33-.32.64-.41.94-.09.3-.18.62-.25.98l-1.15 5.45h-1.18zm16.75-5.9c.22-.03.49-.07.81-.12.32-.05.59-.12.81-.21s.37-.24.46-.46c.08-.22.15-.41.19-.6.06-.3.08-.57.04-.82s-.14-.46-.3-.64c-.16-.18-.39-.33-.68-.43-.29-.1-.67-.16-1.12-.16-.81 0-1.51.16-2.11.49-.6.33-1.04.92-1.33 1.8h-1.19c.17-.6.41-1.11.73-1.53.32-.42.69-.77 1.12-1.03.43-.27.9-.46 1.42-.59.51-.12 1.04-.18 1.59-.18.51 0 .97.05 1.4.16.42.11.77.29 1.05.53.28.24.47.56.58.97.1.4.1.9-.02 1.48l-1.17 5.51c-.11.46-.09.75.05.87s.47.09 1.01-.09l-.2.92c-.09.03-.23.06-.42.12-.19.05-.37.08-.54.08-.17 0-.34-.02-.51-.06-.38-.07-.59-.24-.64-.54-.05-.29-.05-.62.02-.97-.61.55-1.27.96-1.96 1.25-.7.29-1.42.43-2.16.43-.44 0-.86-.06-1.24-.18s-.71-.3-.97-.55c-.26-.25-.44-.55-.55-.91-.1-.36-.1-.78 0-1.28.35-1.72 1.74-2.73 4.18-3.05l1.65-.21zm1.85.59c-.55.21-1.08.35-1.59.41-.51.07-1.03.12-1.55.16-.91.07-1.66.27-2.24.61-.58.34-.94.85-1.08 1.54-.06.31-.06.58.02.81.08.23.2.42.38.57.18.15.39.26.63.33.25.07.51.11.78.11.47 0 .93-.06 1.4-.18.46-.12.89-.3 1.29-.54.4-.24.74-.55 1.02-.92.29-.37.49-.81.6-1.32l.34-1.58zm4.34 5.31h-1.17l2.15-10.11h1.17l-.41 1.89h.04c.49-.81 1.04-1.37 1.62-1.69.58-.32 1.3-.48 2.15-.48l-.27 1.27c-.65-.01-1.21.09-1.69.31-.47.22-.88.52-1.21.9-.33.38-.6.82-.82 1.34-.21.51-.38 1.05-.5 1.61l-1.06 4.96zm6.29 0h-1.17l2.15-10.11h1.17l-.31 1.52h.04c.42-.59.94-1.03 1.56-1.34.62-.31 1.27-.46 1.93-.46.47 0 .86.05 1.16.16.31.1.55.24.74.42.19.18.33.38.43.62.1.23.17.49.22.76.47-.66 1.02-1.16 1.66-1.48.64-.32 1.32-.48 2.05-.48.69 0 1.22.11 1.58.34.36.23.62.53.76.9s.2.8.16 1.28c-.03.48-.1.98-.2 1.48l-1.37 6.39h-1.17l1.48-6.99c.08-.36.11-.69.11-.98-.01-.29-.07-.53-.2-.73-.12-.2-.31-.36-.57-.47-.25-.11-.59-.17-1.01-.17-.43 0-.87.09-1.31.28-.44.19-.85.48-1.23.87-.16.17-.3.37-.44.6s-.26.47-.36.71c-.1.25-.2.49-.27.74-.08.25-.14.48-.18.68l-1.15 5.45h-1.17l1.48-6.99c.08-.36.11-.69.11-.98-.01-.29-.07-.53-.2-.73-.12-.2-.31-.36-.57-.47-.25-.11-.59-.17-1-.17-.43 0-.87.09-1.31.28-.44.19-.85.48-1.23.87-.16.17-.3.37-.44.6s-.26.47-.36.71c-.1.25-.2.49-.27.74-.08.25-.14.48-.18.68l-1.12 5.47zm21.14-5.9c.22-.03.49-.07.81-.12.32-.05.59-.12.81-.21s.37-.24.46-.46c.08-.22.15-.41.19-.6.06-.3.08-.57.04-.82s-.14-.46-.3-.64c-.16-.18-.39-.33-.68-.43-.29-.1-.67-.16-1.12-.16-.81 0-1.51.16-2.11.49-.6.33-1.04.92-1.33 1.8h-1.19c.17-.6.41-1.11.73-1.53.32-.42.69-.77 1.12-1.03.43-.27.9-.46 1.42-.59.51-.12 1.04-.18 1.59-.18.51 0 .97.05 1.4.16.42.11.77.29 1.05.53.28.24.47.56.58.97.1.4.1.9-.02 1.48l-1.17 5.51c-.11.46-.09.75.05.87s.47.09 1.01-.09l-.2.92c-.09.03-.23.06-.42.12-.19.05-.37.08-.54.08-.17 0-.34-.02-.51-.06-.38-.07-.59-.24-.64-.54-.05-.29-.05-.62.02-.97-.61.55-1.27.96-1.96 1.25-.7.29-1.42.43-2.16.43-.44 0-.86-.06-1.24-.18s-.71-.3-.97-.55c-.26-.25-.44-.55-.55-.91s-.1-.78 0-1.28c.35-1.72 1.74-2.73 4.18-3.05l1.65-.21zm1.86.59c-.55.21-1.08.35-1.59.41-.51.07-1.03.12-1.55.16-.91.07-1.66.27-2.24.61-.58.34-.94.85-1.08 1.54-.06.31-.06.58.02.81.08.23.2.42.38.57.18.15.39.26.63.33.25.07.51.11.78.11.47 0 .93-.06 1.4-.18.46-.12.89-.3 1.29-.54.4-.24.74-.55 1.02-.92.29-.37.49-.81.6-1.32l.34-1.58zm11.73-1.62c-.04-.75-.27-1.34-.68-1.77-.42-.42-1.02-.63-1.8-.63-.6 0-1.14.12-1.62.37-.48.25-.9.58-1.27.99-.36.41-.66.87-.9 1.39-.23.51-.41 1.03-.53 1.55-.12.53-.17 1.05-.15 1.56.02.51.12.96.31 1.37.19.4.47.73.85.97s.87.36 1.48.36c.87 0 1.62-.24 2.26-.72.63-.48 1.1-1.15 1.42-1.99h1.25c-.22.56-.49 1.07-.82 1.53s-.7.86-1.13 1.19c-.43.33-.91.59-1.44.77-.53.18-1.12.27-1.76.27-.81 0-1.47-.14-2-.41-.53-.27-.93-.65-1.21-1.12-.28-.47-.44-1.04-.48-1.69-.04-.65.02-1.35.18-2.09.14-.7.38-1.38.72-2.02.34-.64.75-1.21 1.25-1.71.49-.49 1.06-.89 1.71-1.18.64-.29 1.34-.44 2.1-.44 1.17 0 2.06.28 2.66.84.61.56.87 1.43.79 2.62h-1.19zm3.97 2.14c-.12.55-.16 1.06-.12 1.55.04.49.16.91.37 1.27s.5.64.89.86c.38.22.86.32 1.42.32.77 0 1.47-.2 2.1-.61s1.12-.98 1.46-1.72h1.31c-.25.48-.53.93-.85 1.34-.32.41-.69.77-1.1 1.07-.42.31-.89.54-1.41.71-.52.17-1.1.25-1.74.25-.81 0-1.48-.14-2-.41-.53-.27-.93-.65-1.21-1.12-.28-.47-.44-1.04-.48-1.68-.04-.64.02-1.34.18-2.08s.41-1.44.76-2.09c.35-.65.78-1.22 1.28-1.71s1.07-.87 1.7-1.15c.63-.28 1.31-.42 2.04-.42 1.39 0 2.39.48 2.98 1.43.59.96.69 2.35.28 4.17h-7.86zm6.81-.97c.1-.49.13-.96.09-1.4-.05-.44-.17-.81-.36-1.13-.2-.32-.47-.57-.84-.76s-.81-.28-1.33-.28-1 .1-1.44.29c-.44.2-.83.46-1.18.78-.35.33-.66.7-.92 1.13-.26.43-.47.89-.62 1.37h6.6zm11.3-4.36h1.17l-2.15 10.11h-1.17l.29-1.41c-.2.18-.41.37-.64.57-.23.19-.5.37-.79.54-.29.16-.62.3-.98.41-.36.11-.76.17-1.2.17-.68 0-1.22-.09-1.64-.28-.42-.19-.73-.45-.94-.79-.21-.34-.33-.73-.35-1.18-.03-.45.02-.94.14-1.47l1.41-6.66h1.17l-1.4 6.64c-.18.87-.12 1.54.18 2 .31.46.92.69 1.84.69.48 0 .93-.09 1.36-.28.42-.19.8-.45 1.13-.79.33-.34.62-.74.86-1.21s.42-.98.54-1.54l1.17-5.52zm5.41 10.16c-.14.03-.34.07-.6.14-.25.07-.52.1-.81.1-.59 0-1-.15-1.24-.44-.24-.29-.28-.82-.13-1.57l1.56-7.4h-1.43l.22-.98h1.42l.61-2.81h1.17l-.6 2.81h1.89l-.22.98h-1.89l-1.46 6.93c-.05.25-.09.46-.12.64s-.02.33.03.45.13.2.25.25c.12.05.31.08.56.08.16 0 .32-.01.48-.04.16-.03.33-.06.5-.1l-.19.96zm2.05-.04l2.15-10.11h1.17l-2.15 10.11h-1.17zm2.56-12.32l.37-1.74h1.29l-.37 1.74h-1.29zm10.23 5.39c-.04-.75-.27-1.34-.68-1.77-.42-.42-1.02-.63-1.8-.63-.6 0-1.14.12-1.62.37-.48.25-.9.58-1.27.99-.36.41-.66.87-.9 1.39-.23.51-.41 1.03-.53 1.55-.12.53-.17 1.05-.15 1.56.02.51.12.96.31 1.37.19.4.47.73.85.97s.87.36 1.48.36c.87 0 1.62-.24 2.26-.72.63-.48 1.1-1.15 1.42-1.99h1.25c-.22.56-.49 1.07-.82 1.53-.33.46-.7.86-1.13 1.19-.43.33-.91.59-1.44.77-.53.18-1.12.27-1.76.27-.81 0-1.47-.14-2-.41-.53-.27-.93-.65-1.21-1.12s-.44-1.04-.48-1.69c-.04-.65.02-1.35.18-2.09.14-.7.38-1.38.72-2.02.34-.64.75-1.21 1.25-1.71.49-.49 1.06-.89 1.71-1.18.64-.29 1.34-.44 2.1-.44 1.17 0 2.06.28 2.66.84.61.56.87 1.43.79 2.62h-1.19zm8.13 1.03c.22-.03.49-.07.81-.12.32-.05.59-.12.81-.21s.37-.24.46-.46c.08-.22.15-.41.19-.6.06-.3.08-.57.04-.82s-.14-.46-.3-.64c-.16-.18-.39-.33-.68-.43-.29-.1-.67-.16-1.12-.16-.81 0-1.51.16-2.11.49-.6.33-1.04.92-1.33 1.8h-1.19c.17-.6.41-1.11.73-1.53.32-.42.69-.77 1.12-1.03.43-.27.9-.46 1.42-.59.51-.12 1.04-.18 1.59-.18.51 0 .97.05 1.4.16.42.11.77.29 1.05.53.28.24.47.56.58.97.1.4.1.9-.02 1.48l-1.17 5.51c-.11.46-.09.75.05.87s.47.09 1.01-.09l-.2.92c-.09.03-.23.06-.42.12-.19.05-.37.08-.54.08s-.34-.02-.51-.06c-.38-.07-.59-.24-.64-.54-.05-.29-.05-.62.02-.97-.61.55-1.27.96-1.96 1.25-.7.29-1.42.43-2.16.43-.44 0-.86-.06-1.24-.18s-.71-.3-.97-.55c-.26-.25-.44-.55-.55-.91-.1-.36-.1-.78 0-1.28.35-1.72 1.74-2.73 4.18-3.05l1.65-.21zm1.85.59c-.55.21-1.08.35-1.59.41-.51.07-1.03.12-1.55.16-.91.07-1.66.27-2.24.61-.58.34-.94.85-1.08 1.54-.06.31-.06.58.02.81s.2.42.38.57c.18.15.39.26.63.33.25.07.51.11.78.11.47 0 .93-.06 1.4-.18.46-.12.89-.3 1.29-.54.4-.24.74-.55 1.02-.92.29-.37.49-.81.6-1.32l.34-1.58zm3.28 5.31l2.99-14.06h1.17l-2.99 14.06h-1.17zm5.51-3.17c.01.87.22 1.49.62 1.85.4.36 1.04.54 1.92.54.43 0 .81-.05 1.14-.16.33-.1.62-.24.86-.42s.44-.37.59-.6.25-.46.3-.7c.1-.49.02-.86-.24-1.1-.27-.24-.63-.43-1.08-.57-.46-.14-.95-.25-1.48-.35-.53-.1-1.02-.24-1.46-.44-.44-.2-.78-.47-1.02-.84-.24-.36-.29-.88-.15-1.54.18-.85.64-1.54 1.37-2.08.73-.54 1.66-.81 2.79-.81 1.09 0 1.93.24 2.5.73.57.49.81 1.31.72 2.45h-1.19c.05-.78-.13-1.33-.55-1.65-.42-.32-.99-.48-1.72-.48-.74 0-1.34.16-1.81.48-.46.32-.75.74-.85 1.26-.08.34-.05.62.1.84.14.22.35.4.62.55.27.14.59.26.96.36.37.1.74.2 1.12.29.38.1.75.21 1.11.34.36.13.67.3.93.52.26.22.45.49.57.81.12.33.12.73.02 1.21-.1.48-.3.91-.58 1.28-.28.37-.63.68-1.05.93-.42.25-.9.43-1.42.56-.53.12-1.09.19-1.69.19-.6 0-1.11-.09-1.53-.26-.42-.18-.77-.42-1.03-.73s-.44-.68-.54-1.09c-.1-.42-.11-.87-.03-1.35h1.18z"/></svg>
