<?xml version="1.0" standalone="no"?>
<!DOCTYPE svg PUBLIC "-//W3C//DTD SVG 20010904//EN"
 "http://www.w3.org/TR/2001/REC-SVG-20010904/DTD/svg10.dtd">
<svg version="1.0" xmlns="http://www.w3.org/2000/svg"
 width="700.000000pt" height="700.000000pt" viewBox="0 0 700.000000 700.000000"
 preserveAspectRatio="xMidYMid meet">
<g transform="translate(0.000000,700.000000) scale(0.100000,-0.100000)"
fill="#000000" stroke="none">
<path d="M3988 6995 c-3 -2 -110 -13 -203 -20 -26 -2 -64 -8 -135 -20 -8 -1
-35 -6 -60 -10 -541 -88 -1096 -311 -1514 -608 -280 -199 -520 -443 -697 -712
-68 -103 -167 -287 -208 -385 -12 -30 -26 -64 -30 -75 -5 -11 -14 -33 -21 -50
-18 -46 -70 -215 -75 -249 -3 -17 -11 -56 -17 -86 -20 -92 -17 -457 5 -565 56
-274 145 -468 307 -675 92 -118 253 -250 410 -337 50 -28 294 -135 365 -161
291 -105 550 -178 840 -236 127 -26 285 -58 305 -62 14 -3 68 -14 120 -24 52
-11 111 -22 130 -25 19 -3 67 -14 106 -25 39 -10 82 -21 97 -24 14 -2 72 -20
129 -40 240 -82 358 -186 405 -361 13 -46 11 -224 -4 -285 -45 -197 -193 -336
-439 -413 -83 -26 -228 -55 -319 -63 -27 -3 -68 -7 -90 -9 -50 -7 -422 -7
-452 -1 -12 3 -50 7 -84 11 -136 14 -320 73 -423 135 -52 32 -134 103 -167
146 -52 67 -103 190 -116 277 -14 99 -6 249 17 352 5 22 10 44 10 49 0 7 -121
5 -425 -9 -38 -2 -146 -6 -240 -10 -93 -3 -204 -8 -245 -10 -41 -3 -142 -7
-225 -10 -82 -3 -184 -7 -225 -10 -41 -2 -154 -7 -250 -10 -228 -9 -259 -11
-264 -16 -2 -2 -7 -26 -10 -53 -4 -27 -9 -52 -11 -56 -2 -4 -7 -33 -10 -66 -3
-32 -9 -70 -12 -84 -13 -61 -12 -438 2 -535 28 -204 84 -386 167 -542 35 -67
112 -188 129 -203 3 -3 12 -15 20 -27 9 -12 42 -51 74 -85 325 -346 812 -565
1480 -662 94 -14 132 -19 238 -31 176 -19 706 -27 882 -12 131 11 181 16 212
21 16 3 53 7 83 11 46 5 108 15 235 39 11 2 38 7 60 10 109 19 349 84 506 137
1044 347 1711 1041 1928 2002 16 72 32 152 35 177 3 25 9 68 12 95 10 80 7
324 -5 395 -11 63 -14 81 -27 145 -12 60 -67 202 -113 290 -105 202 -262 370
-496 533 -34 23 -65 42 -70 42 -4 0 -16 6 -24 14 -56 50 -402 198 -611 261
-105 32 -185 54 -213 59 -15 2 -35 7 -45 10 -9 3 -28 7 -42 10 -14 3 -56 12
-95 20 -38 8 -90 18 -115 21 -24 4 -47 8 -50 10 -5 3 -189 30 -272 40 -27 3
-69 8 -95 11 -61 8 -76 10 -148 19 -224 27 -482 99 -615 172 -180 99 -269 215
-278 363 -11 192 73 349 239 447 59 35 207 90 267 99 20 3 43 7 51 10 8 2 30
7 50 10 20 3 47 7 61 9 45 8 254 19 350 18 149 0 262 -16 403 -57 187 -55 285
-126 344 -246 52 -107 65 -166 69 -315 1 -55 3 -103 3 -107 1 -4 7 -6 14 -3 6
2 82 6 167 10 85 3 200 8 255 10 55 2 163 7 240 10 77 3 183 8 235 10 52 2
158 7 235 10 77 3 176 8 220 10 44 2 152 7 240 11 164 7 235 11 246 13 6 1 15
45 26 121 2 19 8 60 13 90 11 75 5 422 -9 490 -6 30 -13 64 -15 75 -35 178
-133 391 -255 550 -91 120 -293 300 -409 365 -14 8 -32 20 -39 26 -25 24 -282
144 -398 187 -191 72 -560 160 -755 182 -30 4 -67 8 -82 11 -15 2 -56 7 -90 9
-35 3 -85 8 -113 11 -55 5 -582 13 -587 9z"/>
</g>
</svg>
